<mxfile host="app.diagrams.net" modified="2023-05-17T13:56:10.415Z" agent="Mozilla/5.0 (Macintosh; Intel Mac OS X 10_15_7) AppleWebKit/605.1.15 (KHTML, like Gecko) Version/16.4 Safari/605.1.15" version="21.3.2" etag="0zm0CkQKJ6kzz_iRK-kk" type="github">
  <diagram name="페이지-1" id="18N-1RFOP5urDkAWmF82">
    <mxGraphModel>
      <root>
        <mxCell id="0" />
        <mxCell id="1" parent="0" />
      </root>
    </mxGraphModel>
  </diagram>
</mxfile>
